<svg xmlns="http://www.w3.org/2000/svg" viewBox="0 0 340 64" width="340" height="64">
  <defs>
    <linearGradient id="pmGradF" x1="0" y1="0" x2="1" y2="1">
      <stop offset="0" stop-color="#1a8270"/>
      <stop offset="1" stop-color="#0b443c"/>
    </linearGradient>
  </defs>
  <rect x="2" y="2" width="60" height="60" rx="14" fill="url(#pmGradF)"/>
  <path d="M20 14h17l7 7v29a2.5 2.5 0 0 1-2.5 2.5h-21A2.5 2.5 0 0 1 18 50V16.5A2.5 2.5 0 0 1 20.5 14z"
        fill="#ffffff" opacity="0.96"/>
  <path d="M37 14l7 7h-6a1 1 0 0 1-1-1z" fill="#a3ddcc"/>
  <rect x="23" y="27" width="18" height="2.4" rx="1.2" fill="#a3ddcc"/>
  <rect x="23" y="32.4" width="18" height="2.4" rx="1.2" fill="#a3ddcc"/>
  <rect x="23" y="37.8" width="11" height="2.4" rx="1.2" fill="#a3ddcc"/>
  <path d="M30.5 49.5c2.6-.3 4.9-1.6 6.6-3.7 2.5-3 5.9-9.2 10.4-11.2-1.2 2.4-1.9 4.3-2.9 7.1-1.5 4.2-4.8 8.7-10.6 9.5-2 .3-3.5-.6-3.5-1.7z"
        fill="#1a8270"/>
  <path d="M26.5 50.8c1.6-4.4 4.6-6.3 7.4-6.9-1.9 1.9-3 3.9-3.9 6.4-.5 1.4-3.9 1.6-3.5.5z"
        fill="#2ba189"/>
  <text x="76" y="40" font-family="Georgia, 'Times New Roman', serif" font-size="26" font-weight="700"
        letter-spacing="2.5" fill="#ffffff">PROPOSAL</text>
  <text x="215" y="40" font-family="Georgia, 'Times New Roman', serif" font-size="26" font-weight="400"
        letter-spacing="2.5" fill="#a3ddcc">MANAGER</text>
</svg>
